<svg xmlns="http://www.w3.org/2000/svg" viewBox="-444 -442 25.306 20">
  <defs>
    <style>
      .cls-1 {
        fill: #434343;
      }
    </style>
  </defs>
  <path id="パス_1293" data-name="パス 1293" class="cls-1" d="M0,9.232V2.308c0-.33.082-.659.082-.989C1.319,1.566,1.813,0,2.8,0,6.1,0,9.4.165,12.2,2.226c.495.247.659.082.989-.082C16.074.247,19.453-.082,22.75.082c.742,0,1.4,1.319,2.473,1.319a6.365,6.365,0,0,1,.082.824v14.26c0,.907-.247,1.072-1.154,1.072a27.254,27.254,0,0,0-7.748.824,6.794,6.794,0,0,0-2.72,1.236,1.862,1.862,0,0,1-2.143.082c-1.9-1.4-4.039-1.649-6.182-1.9a38.807,38.807,0,0,0-4.369-.247C.247,17.557,0,17.31,0,16.486.082,14.013,0,11.622,0,9.232Zm12.2.742c0-1.731-.082-3.38,0-5.111a2.472,2.472,0,0,0-1.813-2.72A20.3,20.3,0,0,0,3.792.907C2.885.824,2.72,1.236,2.72,2.061c0,3.874.082,7.748,0,11.54,0,.989.412,1.236,1.319,1.236A15.435,15.435,0,0,1,11.458,16.4c.742.33.742,0,.742-.577C12.2,13.848,12.2,11.952,12.2,9.974ZM22.5,7.913V1.978c0-.495.082-.989-.659-.989a16.458,16.458,0,0,0-7.419,1.566,2.034,2.034,0,0,0-1.236,2.061c.082,3.544,0,7.089,0,10.633,0,1.484,0,1.484,1.4.907.412-.165.907-.33,1.4-.495a20.747,20.747,0,0,1,5.523-.742c.824,0,.989-.33.989-1.154C22.5,11.7,22.5,9.809,22.5,7.913Z" transform="translate(-444 -442)"/>
</svg>
