<svg xmlns="http://www.w3.org/2000/svg" viewBox="927.984 3081.983 26.033 26.033">
  <defs>
    <style>
      .cls-1 {
        fill: #c7c7c7;
      }
    </style>
  </defs>
  <g id="シンボル_236" data-name="シンボル 236" transform="translate(236.984 2979.984)">
    <path id="ブックマーク_on" class="cls-1" d="M13.016,26.033A13.016,13.016,0,1,1,26.033,13.016,13.031,13.031,0,0,1,13.016,26.033ZM7.748,10.825a.671.671,0,0,0-.7.434v.308a1.046,1.046,0,0,0,.424.453l1.987,1.422,1.022.731c.123.089.123.089.078.224-.09.267-.172.52-.255.773l-.189.575-.339,1.023-.158.476c-.092.272-.183.543-.27.817a.625.625,0,0,0,.028.493.645.645,0,0,0,.4.308.463.463,0,0,0,.13.02.508.508,0,0,0,.292-.1l.445-.316.187-.133.6-.428.771-.554.22-.158,1.03-.742a.152.152,0,0,1,.21,0q.9.647,1.8,1.29l.426.3.347.248.635.455a.6.6,0,0,0,.352.134.613.613,0,0,0,.563-.746c-.06-.209-.129-.415-.2-.622l-.084-.255-.507-1.542-.146-.443c-.1-.3-.2-.59-.3-.883a.147.147,0,0,1,.064-.2q.936-.662,1.869-1.333l.385-.275.412-.3.434-.313a.918.918,0,0,0,.348-.4v-.308a.672.672,0,0,0-.688-.434c-.263,0-.512,0-.76,0H16.484l-.982,0a.144.144,0,0,1-.163-.116c-.058-.189-.122-.377-.186-.564l-.095-.282L14.58,8.412l-.461-1.4A.588.588,0,0,0,12.992,7q-.346,1.033-.684,2.064l-.107.323c-.143.434-.287.868-.426,1.3-.036.114-.1.135-.2.135l-1.914,0Zm3.283,5.926h0a.47.47,0,0,1,.034-.162l.227-.684c.181-.543.361-1.085.535-1.629a.59.59,0,0,0-.27-.754L9.5,12.046,9.576,12h2.43l.134,0a.583.583,0,0,0,.583-.426c.163-.483.321-.967.479-1.452l.245-.749.064-.185.03-.085a5.288,5.288,0,0,1,.23.619l.059.179.549,1.671a.593.593,0,0,0,.6.432l.729,0,.728,0c.37,0,.741,0,1.111-.01l.1.02-.149.11-.2.145-.355.254-1.41,1.009a.6.6,0,0,0-.258.768c.1.322.212.642.318.962l.208.624c.067.2.132.4.2.609l.081.251a.427.427,0,0,1-.15-.088l-.821-.588c-.366-.26-.728-.517-1.087-.777a.8.8,0,0,0-.464-.2.606.606,0,0,0-.324.09l-.626.448-.626.448-.694.495-.259.184Z" transform="translate(691 102)"/>
  </g>
</svg>
