<svg xmlns="http://www.w3.org/2000/svg" viewBox="-444.5 -305.5 24.3 23.402">
  <defs>
    <style>
      .cls-1 {
        fill: none;
        stroke: #434343;
        stroke-linecap: round;
        stroke-miterlimit: 10;
      }

      .cls-2 {
        fill: #434343;
      }
    </style>
  </defs>
  <g id="グループ化_1648" data-name="グループ化 1648" transform="translate(-444.5 -305.5)">
    <path id="パス_1287" data-name="パス 1287" class="cls-1" d="M23,11.7c0,2.9.8,11.2.8,11.2H11.7A11.056,11.056,0,0,1,.5,11.7,11.118,11.118,0,0,1,11.7.5,11.267,11.267,0,0,1,23,11.7Z"/>
    <path id="パス_1288" data-name="パス 1288" class="cls-2" d="M15.9,12.3a1,1,0,0,1,1-1h0a1,1,0,0,1,1,1h0a1,1,0,0,1-1,1h0A.942.942,0,0,1,15.9,12.3Zm-5.2,0a1,1,0,0,1,1-1h0a1,1,0,0,1,1,1h0a1,1,0,0,1-1,1h0C11.1,13.4,10.7,12.9,10.7,12.3Zm-5.3,0a1,1,0,0,1,1-1h0a1,1,0,0,1,1,1h0a1,1,0,0,1-1,1h0A.942.942,0,0,1,5.4,12.3Z"/>
  </g>
</svg>
