<svg xmlns="http://www.w3.org/2000/svg" viewBox="-444 -238 19.978 20">
  <defs>
    <style>
      .cls-1 {
        fill: #434343;
      }
    </style>
  </defs>
  <path id="パス_1296" data-name="パス 1296" class="cls-1" d="M19.971,10.767c0-.257-.534-.455-1.306-.514v-.2a8.629,8.629,0,0,0-.059-1.009l1.049-.415c.475-.158.059-.989.059-.989-.079-.237-.653-.277-1.425-.079a7.009,7.009,0,0,0-.435-1.128l.871-.732c.4-.3-.257-.95-.257-.95-.158-.218-.692-.059-1.385.356l.02.04a8.575,8.575,0,0,0-.831-1.029l.04.04.613-.989c.277-.415-.534-.831-.534-.831-.218-.158-.692.178-1.207.772l.138.119A8.536,8.536,0,0,0,14.075,2.4l.158.079.277-1.128c.138-.475-.752-.633-.752-.633-.237-.079-.594.376-.91,1.108l.257.119a8.347,8.347,0,0,0-1.7-.475l.277.04L11.6.36c0-.475-.91-.336-.91-.336-.257,0-.455.534-.514,1.326l.376.04H10a9.67,9.67,0,0,0-1.306.1l.257-.059L8.516.36C8.337-.115,7.526.3,7.526.3c-.237.079-.257.653-.079,1.425l.3-.059A7.8,7.8,0,0,0,6.22,2.24l.158-.079-.752-.89c-.3-.4-.95.257-.95.257-.218.158-.059.692.376,1.385l.2-.119a9.112,9.112,0,0,0-1.187.93l.059-.059-.989-.613c-.415-.277-.831.534-.831.534-.158.218.178.673.772,1.207l.059-.059A10.026,10.026,0,0,0,2.422,5.8L1.333,5.544C.859,5.405.72,6.316.72,6.316c-.079.237.376.594,1.108.89a6.3,6.3,0,0,0-.317,1.088L.384,8.373c-.495.02-.356.91-.356.91,0,.257.534.455,1.306.514v.237a8.716,8.716,0,0,0,.059,1.029L.364,11.5c-.475.178-.04.989-.04.989.079.237.633.257,1.385.079a11.416,11.416,0,0,0,.435,1.148l-.831.732c-.4.317.257.95.257.95.158.2.673.04,1.326-.356a8.184,8.184,0,0,0,.732.91l-.574.93c-.277.415.534.831.534.831.2.138.653-.158,1.148-.732a9.205,9.205,0,0,0,1.029.673l-.218,1.029c-.138.475.772.613.772.613.237.079.574-.356.871-1.049a7.818,7.818,0,0,0,1.167.317l.079,1.068c.02.495.91.356.91.356.257,0,.435-.514.495-1.266H9.98a9.4,9.4,0,0,0,1.068-.059l.415.989c.178.475.989.059.989.059.237-.079.257-.613.079-1.365a7.572,7.572,0,0,0,1.108-.435l.692.811c.3.4.95-.257.95-.257.2-.138.059-.673-.336-1.326a6.559,6.559,0,0,0,.91-.752l.93.574c.415.277.831-.534.831-.534.138-.2-.158-.653-.732-1.167a8.552,8.552,0,0,0,.653-.989l1.068.277c.475.138.633-.752.633-.752.079-.237-.356-.594-1.068-.89a7.572,7.572,0,0,0,.317-1.148l1.108-.079C20.11,11.677,19.971,10.767,19.971,10.767ZM12.057,3.585A10.332,10.332,0,0,1,14.51,5.049c.613.455.712.93.356,1.167L11.7,8.057c-.613.435-.831.059-.831-.277,0,0-.02-2.256-.02-3.4C10.83,3.209,11.444,3.447,12.057,3.585ZM5.469,5.01A10.415,10.415,0,0,1,7.962,3.625c.692-.317,1.167-.158,1.187.3l-.02,3.66c.059.752-.376.752-.673.594,0,0-1.959-1.128-2.948-1.7C4.539,5.88,5.033,5.485,5.469,5.01Zm-.811,7.142c-.989.574-1.088-.059-1.286-.673A10.485,10.485,0,0,1,3.431,8.63c.079-.752.455-1.088.851-.89L7.447,9.58c.673.317.475.712.178.871C7.605,10.451,5.666,11.559,4.657,12.152Zm4.471,3.581c0,1.148-.613.91-1.227.772a9.868,9.868,0,0,1-2.434-1.484c-.613-.455-.712-.93-.336-1.167l3.185-1.82c.633-.435.851-.04.831.277C9.149,12.33,9.129,14.586,9.129,15.733ZM10,11.163a1.108,1.108,0,1,1,1.108-1.108A1.106,1.106,0,0,1,10,11.163Zm4.61,3.878a10.138,10.138,0,0,1-2.493,1.4c-.692.317-1.148.158-1.187-.277l-.02-3.66c-.059-.752.376-.752.653-.594,0,0,1.959,1.108,2.968,1.662C15.539,14.15,15.045,14.566,14.609,15.041ZM16.588,11.5c-.079.752-.455,1.088-.851.871l-3.146-1.84c-.673-.336-.455-.712-.178-.871,0,0,1.959-1.128,2.948-1.7s1.088.059,1.286.673A9.222,9.222,0,0,1,16.588,11.5Z" transform="translate(-444.01 -238.005)"/>
</svg>
