<svg xmlns="http://www.w3.org/2000/svg" viewBox="1904.208 234 20.001 20.017">
  <defs>
    <style>
      .cls-1 {
        fill: #989898;
      }
    </style>
  </defs>
  <g id="_x33_MRpaJ_2_" transform="translate(1904.208 234)">
    <path id="パス_2843" data-name="パス 2843" class="cls-1" d="M20,8.507v2.972a.887.887,0,0,1-.755.314c-.33-.016-.645.031-.975.047-1.478.063-1.179-.157-1.808,1.321a.652.652,0,0,0,.142.786c.44.472.881.959,1.321,1.447a.532.532,0,0,1,.031.8c-.582.6-1.164,1.179-1.761,1.761a.508.508,0,0,1-.77,0c-.283-.252-.55-.519-.833-.77-1.164-1.038-.755-.959-2.249-.377a.681.681,0,0,0-.472.692c-.016.582-.063,1.164-.063,1.761a.925.925,0,0,1-.314.755H8.522a.887.887,0,0,1-.314-.755c.016-.33-.031-.645-.047-.975-.063-1.478.157-1.179-1.321-1.808a.652.652,0,0,0-.786.142c-.472.44-.959.881-1.447,1.321a.508.508,0,0,1-.818,0c-.582-.566-1.148-1.132-1.714-1.714a.508.508,0,0,1,0-.818c.236-.267.487-.535.739-.8,1.038-1.164.943-.755.393-2.2a.709.709,0,0,0-.739-.5c-.629-.016-1.242-.047-1.871-.079-.425-.063-.6-.236-.6-.629V8.774c0-.393.173-.55.582-.582.377-.016.755-.047,1.132-.063,1.478-.063,1.179.157,1.808-1.321a.652.652,0,0,0-.142-.786C2.94,5.551,2.5,5.063,2.06,4.576a.508.508,0,0,1,0-.818c.566-.582,1.132-1.148,1.714-1.714a.517.517,0,0,1,.818,0c.267.236.535.487.818.739,1.179,1.054.755.943,2.249.377a.681.681,0,0,0,.472-.692c.016-.645.047-1.274.079-1.9C8.224.189,8.381,0,8.774,0H11.2c.393,0,.55.173.582.566.016.393.047.786.063,1.164.031,1.462-.063,1.164,1.274,1.761a.7.7,0,0,0,.849-.142c.456-.44.943-.865,1.415-1.289a.508.508,0,0,1,.818,0c.582.566,1.148,1.132,1.714,1.714a.508.508,0,0,1,0,.818c-.236.267-.487.535-.739.818-1.038,1.164-.975.739-.362,2.28a.622.622,0,0,0,.629.425c.6.031,1.2.079,1.793.079A.918.918,0,0,1,20,8.507ZM13.287,10a3.294,3.294,0,1,0-3.3,3.286A3.361,3.361,0,0,0,13.287,10Z"/>
  </g>
</svg>
