<svg xmlns="http://www.w3.org/2000/svg" xmlns:xlink="http://www.w3.org/1999/xlink" viewBox="2025.75 -1116.25 29.5 29.5">
  <defs>
    <style>
      .cls-1, .cls-2 {
        fill: none;
      }

      .cls-1 {
        clip-rule: evenodd;
      }

      .cls-3 {
        clip-path: url(#clip-path);
      }

      .cls-4 {
        clip-path: url(#clip-path-2);
      }

      .cls-5 {
        fill: #007aff;
      }

      .cls-6 {
        clip-path: url(#clip-path-3);
      }

      .cls-7 {
        fill: #fff;
      }
    </style>
    <clipPath id="clip-path">
      <path class="cls-1" d="M15.5-.75A14.75,14.75,0,0,0,30.25-15.5,14.75,14.75,0,0,0,15.5-30.25,14.75,14.75,0,0,0,.75-15.5,14.75,14.75,0,0,0,15.5-.75Z" transform="translate(0 31)"/>
    </clipPath>
    <clipPath id="clip-path-2">
      <path class="cls-2" d="M-3186,7202H1206V-3527H-3186Z" transform="translate(0 31)"/>
    </clipPath>
    <clipPath id="clip-path-3">
      <path class="cls-2" d="M8.024-13.942l3.763,3.763.7.7.707-.687L23.309-20l-1.394-1.434L11.8-11.6l1.4.01L9.439-15.357,8.024-13.942Z" transform="translate(0 31)"/>
    </clipPath>
  </defs>
  <g id="グループ化_3218" data-name="グループ化 3218" transform="translate(2025 -1117)">
    <g class="cls-3">
      <g class="cls-4">
        <path class="cls-5" d="M-4-35H35V4H-4Z" transform="translate(0 31)"/>
      </g>
    </g>
    <g class="cls-6">
      <g class="cls-4">
        <path class="cls-7" d="M3.024-26.439H28.309V-4.482H3.024Z" transform="translate(0 31)"/>
      </g>
    </g>
  </g>
</svg>
